<?xml version="1.0" encoding="utf-8"?>
<!-- Generator: Adobe Illustrator 21.0.0, SVG Export Plug-In . SVG Version: 6.00 Build 0)  -->
<svg version="1.1" id="Layer_1" xmlns="http://www.w3.org/2000/svg" xmlns:xlink="http://www.w3.org/1999/xlink" x="0px" y="0px"
	 viewBox="0 0 1920 1080" style="enable-background:new 0 0 1920 1080;" xml:space="preserve">
<style type="text/css">
	.st0{fill:#3C1361;}
	.st1{fill:#58529D;}
	.st2{opacity:0.49;fill:#FFFFFF;}
	.st3{fill:#FFFFFF;}
	.st4{fill:#58419D;}
	.st5{opacity:0.49;fill:#FFF0E7;}
	.st6{clip-path:url(#SVGID_2_);}
	.st7{fill:#1F0B2D;}
	.st8{opacity:4.000000e-02;fill:#FFFFFF;}
	.st9{fill:#588545;}
	.st10{fill:#664AD0;}
	.st11{fill:#663CD0;}
	.st12{opacity:0.34;fill:#FFFFFF;}
	.st13{fill:#502684;}
	.st14{opacity:0.37;fill:#FFFFFF;}
	.st15{fill:#2D0168;}
	.st16{clip-path:url(#SVGID_4_);fill:#93ACFF;}
	.st17{clip-path:url(#SVGID_4_);}
	.st18{fill:#6D8CEB;}
	.st19{fill:none;}
	.st20{clip-path:url(#SVGID_6_);fill:#3C1361;}
	.st21{clip-path:url(#SVGID_6_);fill:#FFFFFF;}
	.st22{clip-path:url(#SVGID_6_);}
	.st23{fill:#9500FC;}
	.st24{fill:#8500FC;}
	.st25{fill:#9530FC;}
	.st26{clip-path:url(#SVGID_8_);fill:#D5A042;}
	.st27{clip-path:url(#SVGID_8_);}
	.st28{opacity:0.33;fill:#FFFFFF;}
	.st29{fill:#D8B742;}
	.st30{fill:#B38103;}
	.st31{clip-path:url(#SVGID_10_);fill:#585858;}
	.st32{clip-path:url(#SVGID_10_);}
	.st33{fill:#B6B7B8;}
	.st34{fill:#7E7F80;}
	.st35{fill:#585858;}
	.st36{clip-path:url(#SVGID_12_);fill:#951723;}
	.st37{opacity:0.2;clip-path:url(#SVGID_12_);fill:#BAAAE9;}
	.st38{clip-path:url(#SVGID_12_);}
	.st39{fill:#6E1723;}
	.st40{clip-path:url(#SVGID_14_);fill:#E1B0FE;}
	.st41{opacity:0.45;clip-path:url(#SVGID_14_);fill:#664AD0;}
	.st42{clip-path:url(#SVGID_14_);fill:none;}
	.st43{clip-path:url(#SVGID_14_);fill:#664AD0;}
	.st44{clip-path:url(#SVGID_14_);fill:#93ACFF;}
	.st45{clip-path:url(#SVGID_14_);}
	.st46{fill:#E3DEE2;}
	.st47{fill:#BFBCBC;}
	.st48{fill:#C88A63;}
	.st49{fill:#B0795A;}
	.st50{fill:#93ACFF;}
	.st51{fill:#FFCEE8;}
	.st52{fill:#E1B08A;}
	.st53{fill:#B0655A;}
	.st54{clip-path:url(#SVGID_16_);fill:#D5A042;}
	.st55{clip-path:url(#SVGID_16_);}
	.st56{fill:#D5A042;}
	.st57{clip-path:url(#SVGID_16_);fill:none;}
</style>
<g>
	<defs>
		<rect id="SVGID_5_" width="1920" height="1080"/>
	</defs>
	<clipPath id="SVGID_2_">
		<use xlink:href="#SVGID_5_"  style="overflow:visible;"/>
	</clipPath>
	<rect style="clip-path:url(#SVGID_2_);fill:#3C1361;" width="1920" height="1080"/>
	<circle style="clip-path:url(#SVGID_2_);fill:#FFFFFF;" cx="1772" cy="988.9" r="244.4"/>
	<g class="st6">
		<polygon class="st23" points="1467.3,988.7 1467.3,1080 1641.9,1080 1641.9,897.8 		"/>
		<polygon class="st24" points="1816.4,988.7 1816.4,1080 1641.9,1080 1641.9,897.8 		"/>
		<g>
			<polygon class="st23" points="342.2,755.9 342.4,1078.8 960,1078.8 960,434.2 			"/>
			<polygon class="st25" points="342.3,770 960,462.5 960,539.7 342.3,808.6 			"/>
			<polygon class="st25" points="960,616.9 960,694.1 342.3,885.8 342.3,847.2 			"/>
			<polygon class="st25" points="342.3,924.4 960,771.3 960,848.5 342.3,963 			"/>
			<polygon class="st25" points="342.3,1001.6 960,925.7 960,1002.9 342.4,1040.2 			"/>
			<polygon class="st24" points="1577.8,755.9 1577.6,1078.8 960,1078.8 960,434.2 			"/>
			<polygon class="st25" points="1577.7,770 960,462.5 960,539.7 1577.7,808.6 			"/>
			<polygon class="st25" points="960,616.9 960,694.1 1577.7,885.8 1577.7,847.2 			"/>
			<polygon class="st25" points="1577.7,924.4 960,771.3 960,848.5 1577.7,963 			"/>
			<polygon class="st25" points="1577.7,1001.6 960,925.7 960,1002.9 1577.6,1040.2 			"/>
		</g>
		<polygon class="st24" points="806.3,341.9 805.9,1080 -605.8,1080 -605.8,-393.6 		"/>
		<polygon class="st25" points="720.9,439.9 -554.5,-195.1 -554.5,-35.7 720.9,519.6 		"/>
		<polygon class="st25" points="-554.5,123.7 -554.5,283.2 720.9,679.1 720.9,599.3 		"/>
		<polygon class="st25" points="720.9,758.8 -554.5,442.6 -554.5,602 720.9,838.5 		"/>
		<polygon class="st25" points="720.8,918.2 -554.5,761.4 -554.5,920.8 720.8,997.9 		"/>
	</g>
</g>
</svg>
