<?xml version="1.0" encoding="iso-8859-1"?>
<!-- Uploaded to: SVG Repo, www.svgrepo.com, Generator: SVG Repo Mixer Tools -->
<svg version="1.1" id="Layer_1" xmlns="http://www.w3.org/2000/svg" xmlns:xlink="http://www.w3.org/1999/xlink" 
	 viewBox="0 0 512 512" xml:space="preserve">
<path style="fill:#FF5959;" d="M399.452,487.299V29.735c0-9.536-7.805-17.341-17.342-17.341H129.882
	c-9.538,0-17.342,7.804-17.342,17.341v457.564L399.452,487.299L399.452,487.299z"/>
<rect x="112.545" y="426.114" style="fill:#F2D383;" width="286.916" height="61.182"/>
<rect x="349.355" y="381.317" style="opacity:0.2;enable-background:new    ;" width="50.095" height="24.108"/>
<rect x="112.545" y="313.384" style="opacity:0.2;enable-background:new    ;" width="50.095" height="24.108"/>
<rect x="207.513" y="186.497" style="opacity:0.2;enable-background:new    ;" width="50.095" height="24.108"/>
<rect x="339.24" y="147.653" style="opacity:0.2;enable-background:new    ;" width="50.095" height="24.108"/>
<rect x="242.119" y="128.897" style="opacity:0.2;enable-background:new    ;" width="50.094" height="24.108"/>
<rect x="128.897" y="116.838" style="opacity:0.2;enable-background:new    ;" width="50.095" height="24.108"/>
<rect x="257.608" y="266.664" style="opacity:0.2;enable-background:new    ;" width="50.095" height="24.108"/>
<rect x="173.585" y="414.066" style="opacity:0.2;enable-background:new    ;" width="50.095" height="24.108"/>
<rect x="207.513" y="426.114" style="fill:#A4A9AD;" width="96.968" height="61.182"/>
<path style="fill:#FFFFFF;" d="M304.48,426.116v-18.514c0-6.36-5.203-11.564-11.561-11.564h-73.845
	c-6.359,0-11.561,5.204-11.561,11.564v18.514H304.48z"/>
<g>
	<path style="fill:#FFB819;" d="M255.996,142.182c-4.525,0-8.193-3.667-8.193-8.193v-34.3c0-4.526,3.668-8.193,8.193-8.193
		s8.193,3.667,8.193,8.193v34.3C264.189,138.515,260.521,142.182,255.996,142.182z"/>
	<path style="fill:#FFB819;" d="M168.517,142.182c-4.525,0-8.193-3.667-8.193-8.193v-34.3c0-4.526,3.668-8.193,8.193-8.193
		c4.524,0,8.193,3.667,8.193,8.193v34.3C176.709,138.515,173.041,142.182,168.517,142.182z"/>
	<path style="fill:#FFB819;" d="M343.476,142.182c-4.525,0-8.193-3.667-8.193-8.193v-34.3c0-4.526,3.668-8.193,8.193-8.193
		s8.193,3.667,8.193,8.193v34.3C351.668,138.515,348,142.182,343.476,142.182z"/>
</g>
<rect x="112.545" y="99.688" style="opacity:0.2;enable-background:new    ;" width="286.916" height="24.665"/>
<path style="fill:#F2D383;" d="M420.059,104.12c0,3.179-2.601,5.782-5.781,5.782H97.721c-3.18,0-5.781-2.603-5.781-5.782V70.566
	c0-3.179,2.601-5.78,5.781-5.78h316.557c3.18,0,5.781,2.601,5.781,5.78V104.12z"/>
<path style="fill:#FFFFFF;" d="M189.327,229.566c0,6.36-5.203,11.561-11.561,11.561h-18.499c-6.359,0-11.561-5.202-11.561-11.561
	v-46.248c0-6.357,5.203-11.561,11.561-11.561h18.499c6.359,0,11.561,5.204,11.561,11.561V229.566z"/>
<path style="opacity:0.2;enable-background:new    ;" d="M177.765,171.756h-18.499c-6.359,0-11.561,5.204-11.561,11.561v17.921
	c0-6.357,5.203-11.561,11.561-11.561h18.499c6.359,0,11.561,5.204,11.561,11.561v-17.921
	C189.327,176.96,184.125,171.756,177.765,171.756z"/>
<path style="fill:#333E48;" d="M177.765,249.32h-18.499c-10.893,0-19.754-8.861-19.754-19.754v-46.248
	c0-10.893,8.861-19.754,19.754-19.754h18.499c10.893,0,19.754,8.861,19.754,19.754v46.248
	C197.52,240.459,188.658,249.32,177.765,249.32z M159.267,179.949c-1.826,0-3.369,1.542-3.369,3.369v46.248
	c0,1.826,1.542,3.369,3.369,3.369h18.499c1.826,0,3.369-1.542,3.369-3.369v-46.248c0-1.826-1.542-3.369-3.369-3.369L159.267,179.949
	L159.267,179.949z"/>
<path style="fill:#FFFFFF;" d="M276.808,229.566c0,6.36-5.203,11.561-11.561,11.561h-18.499c-6.359,0-11.561-5.202-11.561-11.561
	v-46.248c0-6.357,5.203-11.561,11.561-11.561h18.499c6.359,0,11.561,5.204,11.561,11.561V229.566z"/>
<path style="opacity:0.2;enable-background:new    ;" d="M265.245,171.756h-18.499c-6.359,0-11.561,5.204-11.561,11.561v17.921
	c0-6.357,5.203-11.561,11.561-11.561h18.499c6.359,0,11.561,5.204,11.561,11.561v-17.921
	C276.808,176.96,271.605,171.756,265.245,171.756z"/>
<path style="fill:#333E48;" d="M265.245,249.32h-18.499c-10.893,0-19.754-8.861-19.754-19.754v-46.248
	c0-10.893,8.861-19.754,19.754-19.754h18.499c10.893,0,19.754,8.861,19.754,19.754v46.248
	C285,240.459,276.138,249.32,265.245,249.32z M246.746,179.949c-1.826,0-3.369,1.542-3.369,3.369v46.248
	c0,1.826,1.542,3.369,3.369,3.369h18.499c1.826,0,3.369-1.542,3.369-3.369v-46.248c0-1.826-1.543-3.369-3.369-3.369L246.746,179.949
	L246.746,179.949z"/>
<path style="fill:#FFFFFF;" d="M364.287,229.566c0,6.36-5.203,11.561-11.561,11.561h-18.5c-6.359,0-11.561-5.202-11.561-11.561
	v-46.248c0-6.357,5.203-11.561,11.561-11.561h18.499c6.359,0,11.561,5.204,11.561,11.561v46.248H364.287z"/>
<path style="opacity:0.2;enable-background:new    ;" d="M352.725,171.756h-18.499c-6.359,0-11.561,5.204-11.561,11.561v17.921
	c0-6.357,5.203-11.561,11.561-11.561h18.499c6.359,0,11.561,5.204,11.561,11.561v-17.921
	C364.287,176.96,359.084,171.756,352.725,171.756z"/>
<path style="fill:#333E48;" d="M352.725,249.32h-18.499c-10.893,0-19.754-8.861-19.754-19.754v-46.248
	c0-10.893,8.861-19.754,19.754-19.754h18.499c10.893,0,19.754,8.861,19.754,19.754v46.248
	C372.48,240.459,363.618,249.32,352.725,249.32z M334.226,179.949c-1.826,0-3.369,1.542-3.369,3.369v46.248
	c0,1.826,1.542,3.369,3.369,3.369h18.499c1.826,0,3.369-1.542,3.369-3.369v-46.248c0-1.826-1.543-3.369-3.369-3.369L334.226,179.949
	L334.226,179.949z"/>
<g style="opacity:0.2;">
	<rect x="160.324" y="12.394" width="16.385" height="33.34"/>
</g>
<g style="opacity:0.2;">
	<rect x="203.1" y="12.394" width="16.385" height="33.34"/>
</g>
<g style="opacity:0.2;">
	<rect x="292.509" y="12.394" width="16.385" height="33.34"/>
</g>
<g style="opacity:0.2;">
	<rect x="247.81" y="12.394" width="16.385" height="33.34"/>
</g>
<g style="opacity:0.2;">
	<rect x="335.285" y="12.394" width="16.385" height="33.34"/>
</g>
<path style="fill:#FFFFFF;" d="M189.327,341.715c0,6.357-5.203,11.561-11.561,11.561h-18.499c-6.359,0-11.561-5.204-11.561-11.561
	v-46.248c0-6.357,5.203-11.561,11.561-11.561h18.499c6.359,0,11.561,5.204,11.561,11.561V341.715z"/>
<path style="opacity:0.2;enable-background:new    ;" d="M177.765,283.906h-18.499c-6.359,0-11.561,5.204-11.561,11.561v17.921
	c0-6.36,5.203-11.561,11.561-11.561h18.499c6.359,0,11.561,5.202,11.561,11.561v-17.921
	C189.327,289.11,184.125,283.906,177.765,283.906z"/>
<path style="fill:#333E48;" d="M177.765,361.469h-18.499c-10.893,0-19.754-8.861-19.754-19.754v-46.248
	c0-10.893,8.861-19.754,19.754-19.754h18.499c10.893,0,19.754,8.861,19.754,19.754v46.248
	C197.52,352.608,188.658,361.469,177.765,361.469z M159.267,292.098c-1.826,0-3.369,1.542-3.369,3.369v46.248
	c0,1.826,1.542,3.369,3.369,3.369h18.499c1.826,0,3.369-1.542,3.369-3.369v-46.248c0-1.826-1.542-3.369-3.369-3.369H159.267z"/>
<path style="fill:#FFFFFF;" d="M276.808,341.715c0,6.357-5.203,11.561-11.561,11.561h-18.499c-6.359,0-11.561-5.204-11.561-11.561
	v-46.248c0-6.357,5.203-11.561,11.561-11.561h18.499c6.359,0,11.561,5.204,11.561,11.561V341.715z"/>
<path style="opacity:0.2;enable-background:new    ;" d="M265.245,283.906h-18.499c-6.359,0-11.561,5.204-11.561,11.561v17.921
	c0-6.36,5.203-11.561,11.561-11.561h18.499c6.359,0,11.561,5.202,11.561,11.561v-17.921
	C276.808,289.11,271.605,283.906,265.245,283.906z"/>
<path style="fill:#333E48;" d="M265.245,361.469h-18.499c-10.893,0-19.754-8.861-19.754-19.754v-46.248
	c0-10.893,8.861-19.754,19.754-19.754h18.499c10.893,0,19.754,8.861,19.754,19.754v46.248
	C285,352.608,276.138,361.469,265.245,361.469z M246.746,292.098c-1.826,0-3.369,1.542-3.369,3.369v46.248
	c0,1.826,1.542,3.369,3.369,3.369h18.499c1.826,0,3.369-1.542,3.369-3.369v-46.248c0-1.826-1.543-3.369-3.369-3.369H246.746z"/>
<path style="fill:#FFFFFF;" d="M364.287,341.715c0,6.357-5.203,11.561-11.561,11.561h-18.5c-6.359,0-11.561-5.204-11.561-11.561
	v-46.248c0-6.357,5.203-11.561,11.561-11.561h18.499c6.359,0,11.561,5.204,11.561,11.561v46.248H364.287z"/>
<path style="opacity:0.2;enable-background:new    ;" d="M352.725,283.906h-18.499c-6.359,0-11.561,5.204-11.561,11.561v17.921
	c0-6.36,5.203-11.561,11.561-11.561h18.499c6.359,0,11.561,5.202,11.561,11.561v-17.921
	C364.287,289.11,359.084,283.906,352.725,283.906z"/>
<path style="fill:#333E48;" d="M352.725,361.469h-18.499c-10.893,0-19.754-8.861-19.754-19.754v-46.248
	c0-10.893,8.861-19.754,19.754-19.754h18.499c10.893,0,19.754,8.861,19.754,19.754v46.248
	C372.48,352.608,363.618,361.469,352.725,361.469z M334.226,292.098c-1.826,0-3.369,1.542-3.369,3.369v46.248
	c0,1.826,1.542,3.369,3.369,3.369h18.499c1.826,0,3.369-1.542,3.369-3.369v-46.248c0-1.826-1.543-3.369-3.369-3.369H334.226z"/>
<path style="fill:#A4A9AD;" d="M512,495.194c0,2.426-1.984,4.412-4.412,4.412H4.412c-2.427,0-4.412-1.986-4.412-4.412v-15.792
	c0-2.428,1.985-4.414,4.412-4.414h503.176c2.428,0,4.412,1.986,4.412,4.414V495.194z"/>
<rect x="97.787" y="474.986" style="fill:#333E48;" width="316.421" height="24.618"/>
<g>
	<path style="fill:#00AD68;" d="M129.942,474.988c0-22.787-18.475-41.263-41.263-41.263s-41.263,18.476-41.263,41.263H129.942z"/>
	<path style="fill:#00AD68;" d="M382.049,474.988c0-22.787,18.475-41.263,41.263-41.263c22.789,0,41.263,18.476,41.263,41.263
		H382.049z"/>
</g>
</svg>